<svg width="16" height="10" viewBox="0 0 16 10" fill="none" xmlns="http://www.w3.org/2000/svg">
<path d="M15.0541 9.42118C14.9307 9.55637 14.7842 9.66362 14.6229 9.73681C14.4616 9.80999 14.2887 9.84766 14.1141 9.84766C13.9394 9.84766 13.7665 9.80999 13.6052 9.73681C13.4439 9.66362 13.2974 9.55637 13.174 9.42118L8.00055 3.76284L2.82705 9.42118C2.57774 9.69385 2.2396 9.84704 1.88702 9.84704C1.53445 9.84704 1.1963 9.69385 0.946993 9.42118C0.697682 9.1485 0.557623 8.77867 0.557623 8.39305C0.557623 8.00743 0.697682 7.6376 0.946993 7.36493L7.06719 0.671176C7.19054 0.535983 7.33707 0.428727 7.49837 0.355545C7.65967 0.282364 7.83259 0.244696 8.00722 0.244696C8.18185 0.244696 8.35476 0.282364 8.51607 0.355545C8.67737 0.428727 8.82389 0.535983 8.94725 0.671176L15.0674 7.36493C15.5741 7.91909 15.5741 8.85243 15.0541 9.42118Z" fill="#FAFAFA"/>
</svg>
